<svg xmlns="http://www.w3.org/2000/svg" viewBox="0 0 178.33 127"><defs><style>.cls-1{fill:none;stroke:#ffb740;stroke-miterlimit:10;stroke-width:11px;}.cls-2{fill:#ff9a30;stroke:#ff9a30;}.cls-2,.cls-3,.cls-4{stroke-linecap:round;stroke-linejoin:round;stroke-width:3px;}.cls-3{fill:#ff7925;stroke:#ff7925;}.cls-4{fill:#ed4c37;stroke:#ed4c37;}.cls-5{fill:#b60000;}</style></defs><title>stats</title><g id="Layer_2" data-name="Layer 2"><g id="Layer_1-2" data-name="Layer 1"><path class="cls-1" d="M147.54,29.22A83.7,83.7,0,0,0,5.5,86.76,3.49,3.49,0,0,0,9,90.36H169.36a3.49,3.49,0,0,0,3.47-3.6A83.18,83.18,0,0,0,147.54,29.22Z"/><rect class="cls-2" x="51.35" y="56.84" width="18.64" height="41.66"/><rect class="cls-3" x="79.85" y="46.01" width="18.64" height="52.49"/><rect class="cls-4" x="108.35" y="32.89" width="18.64" height="65.61"/><path class="cls-5" d="M61.91,110.59a1.17,1.17,0,0,1-1.64.47,6,6,0,0,0-.63-.3,4.41,4.41,0,0,0-1.63-.32,2.6,2.6,0,0,0-1.62.47,1.46,1.46,0,0,0-.63,1.23,1.22,1.22,0,0,0,.32.86,2.75,2.75,0,0,0,.82.59,7.67,7.67,0,0,0,1.15.43c.43.12.85.25,1.27.39A8,8,0,0,1,63,116.65a5.55,5.55,0,0,1,1.16,3.65,7.13,7.13,0,0,1-.51,2.75,5.6,5.6,0,0,1-1.49,2.1,6.91,6.91,0,0,1-2.41,1.37,10.06,10.06,0,0,1-3.23.48,11.77,11.77,0,0,1-6-1.64,1.15,1.15,0,0,1-.4-1.54l1-1.95a1.18,1.18,0,0,1,1.72-.39,8.74,8.74,0,0,0,1.21.68,5.5,5.5,0,0,0,2.23.5,2.68,2.68,0,0,0,1.87-.58,1.74,1.74,0,0,0,.61-1.31,1.82,1.82,0,0,0-.15-.77,1.64,1.64,0,0,0-.53-.6,4,4,0,0,0-1-.51c-.4-.16-.87-.33-1.43-.53s-1.31-.44-2-.69a6,6,0,0,1-1.7-1,4.45,4.45,0,0,1-1.2-1.58,5.53,5.53,0,0,1-.46-2.42,7.08,7.08,0,0,1,.48-2.66,6.13,6.13,0,0,1,1.36-2,6.29,6.29,0,0,1,2.15-1.32,8.21,8.21,0,0,1,2.84-.47,12.4,12.4,0,0,1,3.06.41,12.82,12.82,0,0,1,1.9.63,1.18,1.18,0,0,1,.61,1.63Z"/><path class="cls-5" d="M75,112.23v13a1.17,1.17,0,0,1-1.17,1.17H71a1.17,1.17,0,0,1-1.17-1.17v-13a1.18,1.18,0,0,0-1.17-1.17H66.83a1.17,1.17,0,0,1-1.18-1.17v-2a1.17,1.17,0,0,1,1.18-1.17H78a1.17,1.17,0,0,1,1.17,1.17v2A1.17,1.17,0,0,1,78,111.06H76.17A1.17,1.17,0,0,0,75,112.23Z"/><path class="cls-5" d="M91.82,123H86.17a1.18,1.18,0,0,0-1.11.79l-.63,1.85a1.19,1.19,0,0,1-1.11.79H80.38a1.17,1.17,0,0,1-1.09-1.59l6.62-17.39a1.17,1.17,0,0,1,1.09-.75h4a1.17,1.17,0,0,1,1.09.75l6.62,17.39a1.17,1.17,0,0,1-1.09,1.59H94.67a1.19,1.19,0,0,1-1.11-.79l-.63-1.85A1.18,1.18,0,0,0,91.82,123Zm-.66-4.29-1.89-5.39a.29.29,0,0,0-.55,0l-1.89,5.39a.29.29,0,0,0,.28.39h3.78A.29.29,0,0,0,91.16,118.73Z"/><path class="cls-5" d="M108.18,112.23v13a1.17,1.17,0,0,1-1.17,1.17h-2.79a1.17,1.17,0,0,1-1.17-1.17v-13a1.18,1.18,0,0,0-1.17-1.17H100a1.17,1.17,0,0,1-1.17-1.17v-2a1.17,1.17,0,0,1,1.17-1.17h11.22a1.17,1.17,0,0,1,1.17,1.17v2a1.17,1.17,0,0,1-1.17,1.17h-1.87A1.17,1.17,0,0,0,108.18,112.23Z"/><path class="cls-5" d="M126.13,110.59a1.18,1.18,0,0,1-1.65.47,6,6,0,0,0-.63-.3,4.4,4.4,0,0,0-1.62-.32,2.58,2.58,0,0,0-1.62.47,1.46,1.46,0,0,0-.63,1.23,1.21,1.21,0,0,0,.31.86,2.8,2.8,0,0,0,.83.59,7.28,7.28,0,0,0,1.15.43c.42.12.85.25,1.27.39a7.92,7.92,0,0,1,3.67,2.24,5.5,5.5,0,0,1,1.17,3.65,7.13,7.13,0,0,1-.51,2.75,5.72,5.72,0,0,1-1.49,2.1,7,7,0,0,1-2.41,1.37,10.11,10.11,0,0,1-3.23.48,11.81,11.81,0,0,1-6-1.64,1.16,1.16,0,0,1-.4-1.54l1-1.95a1.18,1.18,0,0,1,1.72-.39,8.19,8.19,0,0,0,1.21.68,5.49,5.49,0,0,0,2.22.5,2.67,2.67,0,0,0,1.87-.58,1.75,1.75,0,0,0,.62-1.31,1.82,1.82,0,0,0-.16-.77,1.61,1.61,0,0,0-.52-.6,4.27,4.27,0,0,0-1-.51c-.39-.16-.87-.33-1.42-.53s-1.32-.44-2-.69a6.08,6.08,0,0,1-1.71-1,4.69,4.69,0,0,1-1.2-1.58,5.67,5.67,0,0,1-.46-2.42,6.89,6.89,0,0,1,.49-2.66,5.84,5.84,0,0,1,1.36-2,6.24,6.24,0,0,1,2.14-1.32,8.25,8.25,0,0,1,2.84-.47,13.63,13.63,0,0,1,5,1,1.19,1.19,0,0,1,.62,1.63Z"/></g></g></svg>